<svg xmlns="http://www.w3.org/2000/svg" xmlns:xlink="http://www.w3.org/1999/xlink" xmlns:inkscape="http://www.inkscape.org/namespaces/inkscape" version="1.1" width="156" height="158" viewBox="0 0 156 158">
<defs>
<path id="font_1_2" d="M.73999026 .4358673C.73999026 .5970001 .6339874 .7050781 .4850006 .7050781 .2689972 .7050781 .04899597 .47790528 .04899597 .24472046 .04899597 .07859802 .16099549-.022460938 .30499269-.022460938 .5169983-.022460938 .73999026 .19668579 .73999026 .4358673M.31098939 .0035247803C.21199036 .0035247803 .14199829 .08459473 .14199829 .21670532 .14199829 .2607422 .1559906 .4068451 .23298645 .52394106 .3019867 .62802127 .3999939 .68006899 .47898866 .68006899 .5609894 .68006899 .651001 .62402346 .651001 .4748993 .651001 .4028473 .6239929 .24671936 .5249939 .12362671 .47698976 .062576297 .394989 .0035247803 .31098939 .0035247803Z"/>
<path id="font_2_89" d="M.72099307 .25045777C.72099307 .27046205 .70199587 .27046205 .6879883 .27046205H.40899659V.5500488C.40899659 .5640259 .40899659 .5830078 .3889923 .5830078 .36898805 .5830078 .36898805 .5640259 .36898805 .5500488V.27046205H.08898926C.07499695 .27046205 .055999757 .27046205 .055999757 .25045777 .055999757 .23046875 .07499695 .23046875 .08898926 .23046875H.36898805V-.049972536C.36898805-.0639801 .36898805-.08300781 .3889923-.08300781 .40899659-.08300781 .40899659-.0639801 .40899659-.049972536V.23046875H.6879883C.70199587 .23046875 .72099307 .23046875 .72099307 .25045777Z"/>
<path id="font_3_1" d="M.74398806 .2263794C.7599945 .2263794 .7839966 .2263794 .7839966 .25038148 .7839966 .27539063 .7609863 .27539063 .74398806 .27539063H.147995C.13198853 .27539063 .10798645 .27539063 .10798645 .25138856 .10798645 .2263794 .1309967 .2263794 .147995 .2263794H.74398806Z"/>
<path id="font_4_2" d="M.33499146 .63612368C.33499146 .6630554 .33299256 .6640625 .30499269 .6640625 .24099732 .6014404 .1499939 .6004486 .10899353 .6004486V.5644531C.1329956 .5644531 .19898987 .5644531 .2539978 .592453V.08203125C.2539978 .04899597 .2539978 .035995485 .1539917 .035995485H.115997318V0C.13398743 .0009918213 .25698854 .0039978029 .2939911 .0039978029 .32499696 .0039978029 .45098878 .0009918213 .47299195 0V.035995485H.43499757C.33499146 .035995485 .33499146 .04899597 .33499146 .08203125V.63612368Z"/>
<path id="font_4_1" d="M.5159912 .31925965C.5159912 .42918397 .5029907 .50813296 .45700074 .5780945 .42599488 .62405398 .3639984 .6640625 .28399659 .6640625 .051986696 .6640625 .051986696 .39120484 .051986696 .31925965 .051986696 .2472992 .051986696-.01953125 .28399659-.01953125 .5159912-.01953125 .5159912 .2472992 .5159912 .31925965M.28399659 .008468628C.23799134 .008468628 .1769867 .035446168 .15699768 .117385867 .14299011 .17634583 .14299011 .25830079 .14299011 .33224488 .14299011 .40519715 .14299011 .4811554 .1579895 .53611758 .1789856 .6150665 .24299622 .63604739 .28399659 .63604739 .33799745 .63604739 .3899994 .6030731 .4079895 .545105 .42399598 .4911499 .4249878 .41918946 .4249878 .33224488 .4249878 .25830079 .4249878 .18434143 .4119873 .12138367 .3919983 .030441285 .32398988 .008468628 .28399659 .008468628Z"/>
<path id="font_4_3" d="M.5049896 .18203736H.47099305C.46798707 .16001892 .45799256 .100997928 .44499208 .09098816 .43699647 .084991458 .3600006 .084991458 .34599305 .084991458H.1619873C.2669983 .17803955 .3019867 .20603943 .3619995 .25306703 .43598939 .312088 .5049896 .374115 .5049896 .46914674 .5049896 .5900879 .39898683 .6640625 .2709961 .6640625 .14698792 .6640625 .06298828 .57710269 .06298828 .4851532 .06298828 .43414308 .10598755 .42915345 .115997318 .42915345 .13999939 .42915345 .16899109 .44615174 .16899109 .48214723 .16899109 .5001526 .1619873 .53515627 .10998535 .53515627 .14099121 .6060791 .20899964 .62805178 .2559967 .62805178 .35598756 .62805178 .4079895 .5501404 .4079895 .46914674 .4079895 .38212586 .34599305 .3130951 .31399537 .27708436L.07299805 .038986207C.06298828 .02999878 .06298828 .027999878 .06298828 0H.47499085L.5049896 .18203736Z"/>
<path id="font_4_4" d="M.272995 .33428956C.35099793 .33428956 .40699769 .2803192 .40699769 .1733551 .40699769 .04940796 .33499146 .012466431 .2769928 .012466431 .23699951 .012466431 .14898682 .0234375 .10699463 .082351688 .1539917 .084350589 .16499329 .11735535 .16499329 .13835144 .16499329 .17034912 .14099121 .19335938 .10998535 .19335938 .08198547 .19335938 .053985597 .17634583 .053985597 .13534546 .053985597 .041412355 .1579895-.01953125 .2789917-.01953125 .41799928-.01953125 .5139923 .07336426 .5139923 .1733551 .5139923 .2513275 .44999696 .32929994 .33999635 .35229493 .44499208 .39024354 .48298646 .4650879 .48298646 .5260773 .48298646 .60505679 .3919983 .6640625 .2809906 .6640625 .16999817 .6640625 .084991458 .61006167 .084991458 .5300751 .084991458 .49606324 .10699463 .47706605 .13699341 .47706605 .16799927 .47706605 .18798828 .5000763 .18798828 .5280762 .18798828 .5570679 .16799927 .57806399 .13699341 .5800781 .17199707 .62405398 .24099732 .63505557 .27799989 .63505557 .32299806 .63505557 .38598634 .6130676 .38598634 .5260773 .38598634 .48406983 .37199403 .43814088 .34599305 .4072113 .31298829 .36927796 .2849884 .3672943 .23498535 .36428834 .20999146 .3623047 .20799256 .3623047 .20298767 .3612976 .20098877 .3612976 .19299317 .3592987 .19299317 .34829713 .19299317 .33428956 .20199585 .33428956 .21899414 .33428956H.272995Z"/>
<path id="font_4_5" d="M.5289917 .1640625V.20005799H.41799928V.64582827C.41799928 .66682437 .41799928 .6738281 .3959961 .6738281 .38398744 .6738281 .37998963 .6738281 .36999513 .65982058L.038986207 .20005799V.1640625H.33299256V.08201599C.33299256 .04800415 .33299256 .035995485 .2519989 .035995485H.22499085V0C.2749939 .0019989014 .33898927 .0039978029 .375 .0039978029 .4119873 .0039978029 .47599793 .0019989014 .526001 0V.035995485H.49899293C.41799928 .035995485 .41799928 .04800415 .41799928 .08201599V.1640625H.5289917M.33999635 .5658722V.20005799H.07598877L.33999635 .5658722Z"/>
<path id="font_1_1" d="M.7599945 .69506838C.7599945 .69807437 .7579956 .7050781 .7489929 .7050781 .74598696 .7050781 .7449951 .70407107 .73399356 .69306948L.6639862 .61602786C.6549988 .6300354 .60899356 .7050781 .49798585 .7050781 .2749939 .7050781 .049987794 .48391725 .049987794 .25172425 .049987794 .08659363 .16799927-.022460938 .32099916-.022460938 .4079895-.022460938 .48399354 .017532349 .5369873 .063583377 .6299896 .14564514 .6469879 .2367096 .6469879 .23971558 .6469879 .24972534 .6369934 .24972534 .6349945 .24972534 .6289978 .24972534 .6239929 .24772644 .621994 .23971558 .61299136 .21069336 .58999636 .13963318 .5209961 .081588748 .45199586 .025543213 .3889923 .008529663 .33699037 .008529663 .24699402 .008529663 .14099121 .060577394 .14099121 .21670532 .14099121 .27374269 .1619873 .43588258 .2619934 .55296328 .32299806 .62402346 .4169922 .67407229 .5059967 .67407229 .60798647 .67407229 .6669922 .5970001 .6669922 .48091126 .6669922 .44088746 .6639862 .43988038 .6639862 .4298706 .6639862 .41986085 .6749878 .41986085 .67900088 .41986085 .69200137 .41986085 .69200137 .42185975 .69699099 .43988038L.7599945 .69506838Z"/>
<path id="font_5_1" d="M.44400025 .24998474C.44400025 .35688783 .35499574 .44381715 .25 .44381715 .14199829 .44381715 .054992677 .35488893 .054992677 .24998474 .054992677 .14407349 .14199829 .056137086 .25 .056137086 .35499574 .056137086 .44400025 .14308167 .44400025 .24998474Z"/>
</defs>
<path transform="matrix(1.00005,0,0,-1.00008,35.664979,92.41411)" stroke-width=".19925" stroke-linecap="butt" stroke-miterlimit="10" stroke-linejoin="miter" fill="none" stroke="#929292" d="M-34.01608-56.69362H119.0565M-34.01608-28.3468H119.0565M-34.01608 0H119.0565M-34.01608 28.3468H119.0565M-34.01608 56.69362H119.0565M-34.01608 85.04042H119.0565M-28.3468-62.36288V90.7097M0-62.36288V90.7097M28.3468-62.36288V90.7097M56.69362-62.36288V90.7097M85.04042-62.36288V90.7097M113.38724-62.36288V90.7097M119.0565 90.7097"/>
<path transform="matrix(1.00005,0,0,-1.00008,35.664979,92.41411)" stroke-width=".3985" stroke-linecap="butt" stroke-miterlimit="10" stroke-linejoin="miter" fill="none" stroke="#000000" d="M0 0"/>
<use data-text="O" xlink:href="#font_1_2" transform="matrix(9.963098,0,0,-9.963397,39.18515,102.742938)"/>
<use data-text="+" xlink:href="#font_2_89" transform="matrix(9.963098,0,0,-9.963397,31.788788,94.905307)"/>
<path transform="matrix(1.00005,0,0,-1.00008,35.664979,92.41411)" stroke-width=".3985" stroke-linecap="butt" stroke-miterlimit="10" stroke-linejoin="miter" fill="none" stroke="#000000" d="M-28.3468 0V0H0 28.3468 56.69362 85.04042 113.38724"/>
<use data-text="&#x2212;" xlink:href="#font_3_1" transform="matrix(6.9741489,0,0,-6.974358,2.217308,100.42875)"/>
<use data-text="1" xlink:href="#font_4_2" transform="matrix(6.9741489,0,0,-6.974358,8.443619,100.42875)"/>
<path transform="matrix(1.00005,0,0,-1.00008,35.664979,92.41411)" d="M-36.76639-12.16493H-19.92723V-.19925022H-36.76639Z" fill="#ffffff"/>
<use data-text="&#x2212;" xlink:href="#font_3_1" transform="matrix(6.9741489,0,0,-6.974358,2.217308,100.42875)"/>
<use data-text="1" xlink:href="#font_4_2" transform="matrix(6.9741489,0,0,-6.974358,8.443619,100.42875)"/>
<path transform="matrix(1.00005,0,0,-1.00008,35.664979,92.41411)" d="M-5.3062-11.33469H5.3062V-.19925022H-5.3062Z" fill="#ffffff"/>
<use data-text="0" xlink:href="#font_4_1" transform="matrix(6.9741489,0,0,-6.974358,33.67888,100.42875)"/>
<path transform="matrix(1.00005,0,0,-1.00008,35.664979,92.41411)" d="M23.0406-11.33469H33.653V-.19925022H23.0406Z" fill="#ffffff"/>
<use data-text="1" xlink:href="#font_4_2" transform="matrix(6.9741489,0,0,-6.974358,62.027296,100.42875)"/>
<path transform="matrix(1.00005,0,0,-1.00008,35.664979,92.41411)" d="M51.3874-11.33469H61.9998V-.19925022H51.3874Z" fill="#ffffff"/>
<use data-text="2" xlink:href="#font_4_3" transform="matrix(6.9741489,0,0,-6.974358,90.37571,100.42875)"/>
<path transform="matrix(1.00005,0,0,-1.00008,35.664979,92.41411)" d="M79.73422-11.33469H90.34662V-.19925022H79.73422Z" fill="#ffffff"/>
<use data-text="3" xlink:href="#font_4_4" transform="matrix(6.9741489,0,0,-6.974358,118.72413,100.42875)"/>
<path transform="matrix(1.00005,0,0,-1.00008,35.664979,92.41411)" d="M108.08102-11.33469H118.69342V-.19925022H108.08102Z" fill="#ffffff"/>
<use data-text="4" xlink:href="#font_4_5" transform="matrix(6.9741489,0,0,-6.974358,147.07254,100.42875)"/>
<path transform="matrix(1.00005,0,0,-1.00008,35.664979,92.41411)" stroke-width=".3985" stroke-linecap="butt" stroke-miterlimit="10" stroke-linejoin="miter" fill="none" stroke="#000000" d="M0-56.69362V-56.69362-28.3468 0 28.3468 56.69362 85.04042"/>
<use data-text="&#x2212;" xlink:href="#font_3_1" transform="matrix(6.9741489,0,0,-6.974358,30.56572,157.12729)"/>
<use data-text="1" xlink:href="#font_4_2" transform="matrix(6.9741489,0,0,-6.974358,36.79203,157.12729)"/>
<path transform="matrix(1.00005,0,0,-1.00008,35.664979,92.41411)" d="M-17.03842-62.67645H-.1992588V-50.71077H-17.03842Z" fill="#ffffff"/>
<use data-text="&#x2212;" xlink:href="#font_3_1" transform="matrix(6.9741489,0,0,-6.974358,21.94629,150.9448)"/>
<use data-text="2" xlink:href="#font_4_3" transform="matrix(6.9741489,0,0,-6.974358,28.1726,150.9448)"/>
<path transform="matrix(1.00005,0,0,-1.00008,35.664979,92.41411)" d="M-17.03842-34.32965H-.1992588V-22.363972H-17.03842Z" fill="#ffffff"/>
<use data-text="&#x2212;" xlink:href="#font_3_1" transform="matrix(6.9741489,0,0,-6.974358,21.94629,122.59552)"/>
<use data-text="1" xlink:href="#font_4_2" transform="matrix(6.9741489,0,0,-6.974358,28.1726,122.59552)"/>
<path transform="matrix(1.00005,0,0,-1.00008,35.664979,92.41411)" d="M-10.81166-5.56772H-.19925976V5.56772H-10.81166Z" fill="#ffffff"/>
<use data-text="0" xlink:href="#font_4_1" transform="matrix(6.9741489,0,0,-6.974358,28.173607,94.661289)"/>
<path transform="matrix(1.00005,0,0,-1.00008,35.664979,92.41411)" d="M-10.81166 22.77908H-.19925976V33.91452H-10.81166Z" fill="#ffffff"/>
<use data-text="1" xlink:href="#font_4_2" transform="matrix(6.9741489,0,0,-6.974358,28.173607,66.31202)"/>
<path transform="matrix(1.00005,0,0,-1.00008,35.664979,92.41411)" d="M-10.81166 51.12589H-.19925976V62.26133H-10.81166Z" fill="#ffffff"/>
<use data-text="2" xlink:href="#font_4_3" transform="matrix(6.9741489,0,0,-6.974358,28.173607,37.963754)"/>
<path transform="matrix(1.00005,0,0,-1.00008,35.664979,92.41411)" d="M-10.81166 79.4727H-.19925976V90.60814H-10.81166Z" fill="#ffffff"/>
<use data-text="3" xlink:href="#font_4_4" transform="matrix(6.9741489,0,0,-6.974358,28.173607,9.614487)"/>
<path transform="matrix(1.00005,0,0,-1.00008,35.664979,92.41411)" stroke-width=".3985" stroke-linecap="butt" stroke-miterlimit="10" stroke-linejoin="miter" fill="none" stroke="#000000" d="M42.5202 14.17339"/>
<use data-text="C" xlink:href="#font_1_1" transform="matrix(9.963098,0,0,-9.963397,81.707279,88.5678)"/>
<use data-text="&#x2022;" xlink:href="#font_5_1" transform="matrix(9.963098,0,0,-9.963397,75.696979,80.454158)"/>
<path transform="matrix(1.00005,0,0,-1.00008,35.664979,92.41411)" stroke-width=".3985" stroke-linecap="butt" stroke-miterlimit="10" stroke-linejoin="miter" fill="none" stroke="#000000" d="M99.21382 14.17339C99.21382 45.48482 73.83162 70.867 42.5202 70.867 11.20877 70.867-14.1734 45.48482-14.1734 14.17339-14.1734-17.13802 11.20877-42.52022 42.5202-42.52022 73.83162-42.52022 99.21382-17.13802 99.21382 14.17339ZM42.5202 14.17339"/>
</svg>
